<svg id="visual" viewBox="0 0 500 500" width="500" height="500" xmlns="http://www.w3.org/2000/svg" xmlns:xlink="http://www.w3.org/1999/xlink" version="1.1"><rect x="0" y="0" width="500" height="500" fill="#e0e0e0"></rect><g transform="translate(223.82107567353313 213.7966947382531)"><path d="M123.6 -153.8C160.2 -143.5 190 -107.5 188 -71.1C186.1 -34.7 152.5 2 139.5 46.4C126.5 90.7 134.1 142.9 114.3 178.1C94.4 213.3 47.2 231.7 1.6 229.5C-44.1 227.3 -88.2 204.7 -111.5 170.6C-134.8 136.5 -137.3 91 -135.1 54.2C-132.8 17.4 -125.9 -10.6 -122 -44.9C-118 -79.1 -117.2 -119.7 -97.4 -135.4C-77.6 -151.1 -38.8 -142.1 2.4 -145.3C43.5 -148.5 87 -164.1 123.6 -153.8" fill="#161616"></path></g></svg>