<svg id="visual" viewBox="0 0 500 500" width="500" height="500" xmlns="http://www.w3.org/2000/svg" xmlns:xlink="http://www.w3.org/1999/xlink" version="1.1"><rect x="0" y="0" width="500" height="500" fill="#e0e0e0"></rect><g transform="translate(225.46644147096396 245.3647708344791)"><path d="M117.6 -145.4C157.2 -133.1 197.5 -105.2 209.2 -68.2C221 -31.2 204.2 14.8 182.3 52.1C160.4 89.4 133.4 117.9 102.2 137.3C70.9 156.6 35.5 166.8 -0.6 167.6C-36.6 168.4 -73.3 159.9 -93.1 136.8C-112.9 113.7 -115.9 76.2 -128.5 40.9C-141.1 5.7 -163.3 -27.3 -164 -62C-164.8 -96.8 -144.1 -133.3 -113.2 -148.5C-82.3 -163.6 -41.1 -157.3 -1.1 -155.8C39 -154.3 78 -157.7 117.6 -145.4" fill="#161616"></path></g></svg>